#N canvas 802 114 1558 836 12;
#X obj 880 633 netsend -u -b;
#X msg 1058 604 connect 127.0.0.1 8001;
#X msg 1046 219 1;
#X obj 1046 266 oscformat -f f play;
#X obj 890 268 oscformat -f f stop;
#X msg 889 221 1;
#X text 1230 604 connecter par OSC à l'ordi;
#X obj 1047 529 oscformat -f f master volume;
#X text 1252 529 volume principal;
#X obj 1049 481 nbx 5 17 -1e+37 1e+37 0 0 empty empty empty 0 -10 0 12 #fcfcfc #000000 #000000 0 256;
#X text 1127 478 "Nombre2";
#X obj 1052 439 hsl 162 19 0 1 0 0 empty empty empty -2 -10 0 12 #fcfcfc #000000 #000000 0 1;
#X text 1226 439 slider du son (changer propriétés pour 0 à 1);
#X text 1127 499 ajuster données avec MAJ+souris;
#X msg 24 30 devices;
#X msg 124 49 close;
#X msg 153 92 baud 115200 \, open 4;
#X obj 21 221 oscparse, f 10;
#X obj 21 138 comport;
#X obj 21 181 pdchoco/slip_parse;
#X obj 20 264 list trim;
#X obj 20 315 route bouton angle;
#X obj 20 391 tgl 19 0 empty empty empty 0 -10 0 12 #fcfcfc #000000 #000000 0 1;
#X obj 81 358 nbx 5 17 -1e+37 1e+37 0 0 empty empty empty 0 -10 0 12 #fcfcfc #000000 #000000 0 256;
#X obj 943 98 select 0 1;
#X msg 941 35 0;
#X msg 994 37 1;
#X obj 889 152 bng 19 250 50 0 empty empty empty 0 -10 0 12 #fcfcfc #000000 #000000;
#X obj 1046 153 bng 19 250 50 0 empty empty empty 0 -10 0 12 #fcfcfc #000000 #000000;
#X obj 776 35 tgl 19 0 empty empty empty 0 -10 0 12 #fcfcfc #000000 #000000 0 1;
#X text 935 216 pour arrêter;
#X text 811 36 interrupteur;
#X text 1091 216 pour faire jouer sur Reaper;
#X text 81 445 transforme le flux en évènement;
#X obj 20 442 change;
#X obj 22 551 change;
#X obj 22 516 pdchoco/stream_flip_flop;
#X obj 22 590 tgl 19 0 empty empty empty 0 -10 0 12 #fcfcfc #000000 #000000 0 1;
#X text 20 474 LIEN DIRECT;
#X text 90 549 LIEN FLIP FLOP;
#X obj 594 264 oscformat -f i vkb_midi 0 note 60;
#X text 562 296 message OSC pour le virtual MIDI Keyboard;
#X msg 628 212 127;
#X msg 677 212 0;
#X obj 578 616 oscformat -f i vkb_midi 0 cc 14;
#X text 552 644 message OSC pour le freq du MIDI Keyboard;
#X text 704 316 /vkb_midi/@/note/# i;
#X text 646 665 ** j'ai choisi le chiffre 14;
#X floatatom 578 584 5 0 0 0 - - - 0;
#X obj 444 418 * 127;
#X obj 444 455 / 4095;
#X obj 444 490 pdchoco/stream_smooth 0.01 0.01;
#X obj 310 583 pdchoco/scope 0 127;
#X connect 1 0 0 0;
#X connect 2 0 3 0;
#X connect 3 0 0 0;
#X connect 4 0 0 0;
#X connect 5 0 4 0;
#X connect 7 0 0 0;
#X connect 9 0 7 0;
#X connect 11 0 9 0;
#X connect 14 0 18 0;
#X connect 15 0 18 0;
#X connect 16 0 18 0;
#X connect 17 0 20 0;
#X connect 18 0 19 0;
#X connect 19 0 17 0;
#X connect 20 0 21 0;
#X connect 21 0 22 0;
#X connect 21 1 23 0;
#X connect 22 0 34 0;
#X connect 22 0 36 0;
#X connect 23 0 49 0;
#X connect 24 0 27 0;
#X connect 24 1 28 0;
#X connect 25 0 24 0;
#X connect 26 0 24 0;
#X connect 27 0 5 0;
#X connect 28 0 2 0;
#X connect 29 0 24 0;
#X connect 35 0 37 0;
#X connect 36 0 35 0;
#X connect 37 0 29 0;
#X connect 40 0 0 0;
#X connect 42 0 40 0;
#X connect 43 0 40 0;
#X connect 44 0 0 0;
#X connect 48 0 44 0;
#X connect 49 0 50 0;
#X connect 50 0 51 0;
#X connect 51 0 48 0;
#X connect 51 0 52 0;
